<?xml version="1.0" encoding="utf-8"?>
<!-- Generator: Adobe Illustrator 22.0.1, SVG Export Plug-In . SVG Version: 6.00 Build 0)  -->
<svg version="1.1" id="Layer_1" xmlns="http://www.w3.org/2000/svg" xmlns:xlink="http://www.w3.org/1999/xlink" x="0px" y="0px"
	 viewBox="0 0 300.9 47.1" style="enable-background:new 0 0 300.9 47.1;" xml:space="preserve">
<style type="text/css">
	.st0{fill:#FFFFFF;}
</style>
<g>
	<g>
		<g>
			<path class="st0" d="M231.4,8.2l-7.2,15.6h-4.4l-7.2-15.6h3.8l5.6,12.9l5.6-12.9H231.4z"/>
		</g>
		<g>
			<path class="st0" d="M243.3,8.2v15.6h-3.6V8.2H243.3z"/>
		</g>
		<g>
			<path class="st0" d="M267,23.8h-13.9V8.2h13.7l-1.4,2.8h-8.7v3.5h9.5l-1.4,2.7h-8V21h8.9L267,23.8z"/>
		</g>
		<g>
			<path class="st0" d="M300.5,8.2l-5.5,15.6h-4.2l-3.2-10.7l-3.2,10.7h-4.2l-5.5-15.6h3.8l3.9,11.8l3.5-11.8h3.4l3.5,11.8l3.9-11.8
				H300.5z"/>
		</g>
		<path class="st0" d="M74.6,3.5l-6-2.8l-7,0.7c0,0-0.1,0-0.1,0l-10.4,8.9l-1.5-1.7c0,0-0.1-0.1-0.1-0.1l-8.5-2l-0.1,0
			c-0.1,0-8,0.8-8,0.8c0,0-0.1,0-0.1,0.1l-9.8,17.4c0,0.1,0,0.1,0,0.2c0,0,2.9,7.1,2.9,7.1c0,0.1,0.1,0.1,0.2,0.1
			c0,0,1.8-0.2,1.8-0.2l0.3-0.5l-1.7,0.2l8.9-16.1c0,0,7.5,10.9,7.5,10.9c0,0,0,0,0,0c0,0,0.1,0,0.1,0.1l5-0.1l-8,18.9
			c0,0,0,0.1,0,0.1c0,0,0.1,0.1,0.1,0.1l10.2,0.8l7.5-2.1c0.1,0,0.1-0.1,0.1-0.1l13.9-30.8c0-0.1,0-0.1,0-0.2c0-0.1-0.1-0.1-0.1-0.1
			l-1.7-0.4L74.8,9c0.1-0.1,0.2-0.2,0.2-0.4V3.9C74.9,3.7,74.8,3.5,74.6,3.5z M41.6,7.1L49.4,9l1.4,1.6l-4.1,3.5L41.6,7.1z
			 M71.5,13.5L57.7,43.9l-7.1,1.9l14.8-34L71.5,13.5z M69.7,12.5l-4.3-1.1l0,0h0c0,0,0,0-0.1,0c0,0,0,0-0.1,0L48.3,26.1l-4.5,0.1
			L68.5,6.8l5.7,2.1L69.7,12.5z M74.5,8.5l-5.8-2.1V1.2l5.8,2.7V8.5z"/>
	</g>
	<g>
		<g>
			<path class="st0" d="M105.9,10.9H100v12.8h-3.6V10.9h-5.9L92,8.2h14V10.9z"/>
		</g>
		<g>
			<path class="st0" d="M127.4,23.8l-3.3-5.3c0,0-0.1,0-0.1,0h-5.6v5.3h-3.6V8.2h9.6c4.2,0,6.4,2,6.4,5.2c0,2.5-1.2,3.9-3.2,4.6
				l3.7,5.8H127.4z M118.4,15.8h5.9c2.2,0,2.9-1.1,2.9-2.4c0-1.3-0.7-2.4-2.9-2.4h-5.9V15.8z"/>
		</g>
		<g>
			<path class="st0" d="M152.3,20.7h-8.6l-1.3,3.1h-3.8l7.2-15.6h4.4l7.2,15.6h-3.8L152.3,20.7z M151.1,18l-3.1-7.1l-3.1,7.1H151.1z
				"/>
		</g>
		<g>
			<path class="st0" d="M182.2,16c0,6.2-4.6,7.8-9.4,7.8h-7.1V8.2h7.1C177.6,8.2,182.2,9.7,182.2,16z M178.5,16c0-4-2.4-5-6.1-5
				h-3.1V21h3.1C176.1,21,178.5,20,178.5,16z"/>
		</g>
		<g>
			<path class="st0" d="M202.3,15.3l0.6-1.3h-9.7c0.7-2.5,2.8-3.1,5.9-3.1h3.1l2.2,0l1.4-2.7h-7.1c-4.7,0-9.1,1.5-9.4,7.2
				L202.3,15.3z"/>
			<path class="st0" d="M202.2,21h-3.1c-3,0-5.2-0.7-5.9-3.1h7.9l0.6-1.3l-12.4,0c0.3,5.7,4.7,7.2,9.4,7.2h7.1l-1.4-2.8L202.2,21z"
				/>
		</g>
		<g>
			<path class="st0" d="M149.2,31.3v7.5h-1.7v-5.9l-2.5,5.9h-1.6l-2.5-5.9v5.9h-1.7v-7.5h2.7l2.4,5.8l2.4-5.8H149.2z"/>
			<path class="st0" d="M165.1,37.3H161l-0.6,1.5h-1.8l3.5-7.5h2.1l3.5,7.5h-1.8L165.1,37.3z M164.5,36l-1.5-3.4l-1.5,3.4H164.5z"/>
			<path class="st0" d="M182.9,38.8l-1.6-2.5c0,0,0,0,0,0h-2.7v2.5h-1.7v-7.5h4.6c2,0,3.1,1,3.1,2.5c0,1.2-0.6,1.9-1.5,2.2l1.8,2.8
				H182.9z M178.6,35h2.8c1,0,1.4-0.5,1.4-1.2c0-0.6-0.3-1.2-1.4-1.2h-2.8V35z"/>
			<path class="st0" d="M197.6,35.3l-1.6,1.5v2h-1.7v-7.5h1.7v3.5l3.8-3.5h2.2l-3.2,2.9l3.4,4.6h-2L197.6,35.3z"/>
			<path class="st0" d="M218.3,38.8h-6.7v-7.5h6.6v1.3h-4.8v1.7h4.5v1.3h-4.5v1.9h4.9V38.8z"/>
			<path class="st0" d="M234.9,32.6h-2.8v6.2h-1.7v-6.2h-2.8v-1.3h7.4V32.6z"/>
			<path class="st0" d="M251.9,36.5c0,1.6-1.3,2.5-4,2.5c-2.6,0-3.9-1-3.9-2.5h1.8c0,0.8,0.9,1.2,2.3,1.2c1.4,0,2-0.4,2-0.9
				c0-0.8-1.2-0.7-3.2-1c-2-0.3-2.7-1-2.7-2.1c0-1.2,0.8-2.4,3.6-2.4c2.6,0,3.7,1,3.7,2.3h-1.7c-0.1-0.5-0.7-1-2.1-1
				c-1.5,0-1.9,0.4-1.9,0.9c0,0.7,1.2,0.7,2.6,0.9C250.4,34.6,251.9,34.8,251.9,36.5z"/>
		</g>
		<path class="st0" d="M40.4,43.5l7.1-16.2c0,0,0-0.1,0-0.2c0,0,0,0,0-0.1l-0.4-0.6l0,0c-0.2,0-0.3,0-0.6,0l0.4,0.5l-5.3,0.4
			l-5.9-7.9l2.5,0.1c-0.1-0.2-0.2-0.3-0.3-0.5L35.2,19c-0.1,0-0.1,0-0.2,0.1l-6.8,12.5l0,0l-0.3,0.5l0,0l-2.1,3.8L19,18.3l7.2,0.8
			l0.2-0.4L21,18.1l6-0.2l0,0l0.3-0.5l-13.4,0.4l-6.3-0.4l17.9-0.8l2.2,0.1l0.3-0.4l-1.8-0.1l-0.3,0l5-8.4l1.6,0.3l0.2-0.4l-1.6-0.3
			L0.6,9.8c0,0-0.1,0-0.1,0.1c0,0,0,0.1,0,0.1l2.9,7.5c0,0,0,0,0,0c0,0,0.1,0,0.1,0l9.2,0.6l-3.4,0.2c0,0-0.1,0-0.1,0.1
			c0,0,0,0.1,0,0.1l9.7,25.3c0,0.1,0.1,0.1,0.1,0.1l14.3,1.1l6.9-1.4C40.3,43.7,40.4,43.6,40.4,43.5z M33.5,44.6l8.1-16.7l5.3-0.4
			l-6.9,15.7L33.5,44.6z"/>
	</g>
</g>
</svg>
