<svg xmlns="http://www.w3.org/2000/svg" width="251.44" height="98.09" viewBox="0 0 251.44 98.09"><defs><style>.cls-1{fill:#b2b2b2;}</style></defs><title>Recurso 433</title><g id="Capa_2" data-name="Capa 2"><g id="Content"><path class="cls-1" d="M.12,60.23a2.78,2.78,0,0,1,2.79-2.79H5.08a2.82,2.82,0,0,1,2.78,2.79v1c0,3.72.7,5.5,1.79,6.43a4.55,4.55,0,0,0,3.25,1c3.26,0,5-1.4,5-5.5,0-3.64-3.57-6.51-7.36-9.46v.08C5.46,49.77.12,45.59.12,37.92c0-8.76,4.57-13.79,12.78-13.79,8.37,0,12.79,5.34,12.79,15.18V40.4a2.78,2.78,0,0,1-2.79,2.79H20.73a2.78,2.78,0,0,1-2.79-2.79V39.31c0-5.11-1.63-7.44-5-7.44-3.25,0-5,1.79-5,5.82s3.8,7,7.6,9.91h-.08C20.49,51.55,25.69,55.51,25.69,63c0,8.68-4.58,13.33-12.79,13.33-8.52,0-12.78-5-12.78-15.11Z"/><path class="cls-1" d="M30.41,26.92a2.76,2.76,0,0,1,2.71-2.79h2.17a2.78,2.78,0,0,1,2.79,2.79V62.17c0,4.11,1.24,6.51,5,6.51,4,0,5-2.79,5-6.51V26.92a2.76,2.76,0,0,1,2.71-2.79H53a2.78,2.78,0,0,1,2.79,2.79V62.17c0,8.68-3.72,14.18-12.71,14.18-9.29,0-12.7-6-12.7-14.18Z"/><path class="cls-1" d="M87.58,73.56a2.78,2.78,0,0,1-2.79,2.79H82.62a2.78,2.78,0,0,1-2.79-2.79V60.62c0-3.87-2.17-6-6-6H70.38v19a2.76,2.76,0,0,1-2.71,2.79H65.5a2.78,2.78,0,0,1-2.79-2.79V26.92a2.78,2.78,0,0,1,2.79-2.79h9.76c9.53,0,12.86,4.8,12.86,15.18,0,4.81-.85,8.68-3.25,11.08l-.62.62c2.24,2.4,3.33,5.58,3.33,9.61ZM70.38,46.75h3.48c4.34,0,6.59-2.17,6.59-7.44s-1.16-7.44-5.19-7.44H70.38Z"/><path class="cls-1" d="M112.68,24.21A2.77,2.77,0,0,1,115.46,27v2.1a2.76,2.76,0,0,1-2.78,2.78H100.9V46.44h8.68a2.78,2.78,0,0,1,2.79,2.79v2.09a2.78,2.78,0,0,1-2.79,2.79H100.9V73.64a2.83,2.83,0,0,1-2.79,2.79H95.94a2.78,2.78,0,0,1-2.79-2.79V27a2.78,2.78,0,0,1,2.79-2.78Z"/><path class="cls-1" d="M128.4,33a2.78,2.78,0,0,1-2.79,2.79h-2.17A2.76,2.76,0,0,1,120.73,33V27a2.76,2.76,0,0,1,2.71-2.78h2.17A2.78,2.78,0,0,1,128.4,27Z"/><path class="cls-1" d="M247.88,56.11a2.78,2.78,0,0,1-2.79,2.78h-2.17a2.76,2.76,0,0,1-2.71-2.78v-6a2.76,2.76,0,0,1,2.71-2.79h2.17a2.78,2.78,0,0,1,2.79,2.79Z"/><path class="cls-1" d="M131.34,60.23a2.78,2.78,0,0,1,2.79-2.79h2.17a2.83,2.83,0,0,1,2.79,2.79v1c0,3.72.7,5.5,1.78,6.43a4.56,4.56,0,0,0,3.26,1c3.25,0,5-1.4,5-5.5,0-3.64-3.56-6.51-7.36-9.46v.08c-5.11-4-10.46-8.21-10.46-15.88,0-8.76,4.57-13.79,12.79-13.79s12.78,5.34,12.78,15.18V40.4a2.78,2.78,0,0,1-2.79,2.79H152a2.78,2.78,0,0,1-2.79-2.79V39.31c0-5.11-1.63-7.44-5-7.44s-5,1.79-5,5.82,3.8,7,7.59,9.91h-.08c5.12,3.95,10.31,7.91,10.31,15.42,0,8.68-4.57,13.33-12.78,13.33-8.53,0-12.79-5-12.79-15.11Z"/><path class="cls-1" d="M177.9,22.31a2.76,2.76,0,0,1,2.71-2.79h2.17a2.78,2.78,0,0,1,2.79,2.79V44.75c0,4.1,1.24,6.51,5,6.51,4,0,5-2.79,5-6.51V22.31a2.76,2.76,0,0,1,2.71-2.79h2.17a2.78,2.78,0,0,1,2.79,2.79V44.75c0,8.68-3.72,14.18-12.71,14.18-9.3,0-12.7-6-12.7-14.18Z"/><path class="cls-1" d="M217.87,49.51v6.71A2.76,2.76,0,0,1,215.16,59H213a2.78,2.78,0,0,1-2.79-2.78V22.39A2.78,2.78,0,0,1,213,19.6h8.37c9.45,0,13.63,5,13.63,14.95s-4.18,15-13.63,15Zm0-22.24V41.84h3.49c4.18,0,5.88-2.25,5.88-7.29s-1.7-7.28-5.88-7.28Z"/><path class="cls-1" d="M247.46,41.14a2.82,2.82,0,0,1-2.79,2.79H242.5a2.81,2.81,0,0,1-2.71-2.79V22.31a2.76,2.76,0,0,1,2.71-2.79h2.17a2.78,2.78,0,0,1,2.79,2.79Z"/><path class="cls-1" d="M247.46,76.66c-4.26,0-6.44-2.65-8-4.59s-2.12-2.44-3.49-2.44-2,.63-3.5,2.44-3.75,4.59-8,4.59-6.44-2.65-8-4.59-2.13-2.44-3.5-2.44-2,.63-3.49,2.44-3.76,4.59-8,4.59-6.44-2.65-8-4.59-2.13-2.44-3.5-2.44-2,.63-3.49,2.44-3.77,4.59-8,4.59a2.93,2.93,0,0,1,0-5.86c1.37,0,2-.63,3.49-2.44s3.77-4.59,8-4.59,6.44,2.65,8,4.59,2.12,2.44,3.5,2.44,2-.63,3.49-2.44,3.76-4.59,8-4.59,6.44,2.65,8,4.59,2.12,2.44,3.49,2.44,2-.63,3.49-2.44,3.76-4.59,8-4.59,6.43,2.65,8,4.59,2.12,2.44,3.49,2.44a2.93,2.93,0,0,1,0,5.86Z"/><path class="cls-1" d="M0,91.14a3,3,0,0,1,.78-2.27A2.31,2.31,0,0,1,2.4,88.3,2.28,2.28,0,0,1,4,88.87a3,3,0,0,1,.77,2.27v.2a.51.51,0,0,1-.51.52H3.83a.52.52,0,0,1-.52-.52v-.2c0-1-.32-1.4-.91-1.4s-.93.42-.93,1.4v4.1c0,1,.3,1.41.93,1.41a.91.91,0,0,0,.66-.26,1.92,1.92,0,0,0,.25-1.15V95a.52.52,0,0,1,.52-.52h.42a.51.51,0,0,1,.51.52v.2A3,3,0,0,1,4,97.51a2.27,2.27,0,0,1-1.61.58,2.25,2.25,0,0,1-1.63-.58A3,3,0,0,1,0,95.24Z"/><path class="cls-1" d="M13.56,95.42H12.08l-.51,2.26a.58.58,0,0,1-.51.41h-.42a.5.5,0,0,1-.51-.62l.7-3.08,1.32-5.68a.58.58,0,0,1,.51-.41H13a.57.57,0,0,1,.51.41l2,8.74a.52.52,0,0,1-.51.64h-.42a.58.58,0,0,1-.51-.41ZM12.41,94h.82c-.16-.7-.14-1.09-.41-2.32Z"/><path class="cls-1" d="M19.38,88.81a.52.52,0,0,1,.52-.52h3.81a.52.52,0,0,1,.52.52v.41a.52.52,0,0,1-.52.52H22.52v7.81a.53.53,0,0,1-.53.53H21.6a.52.52,0,0,1-.52-.53V89.74H19.9a.52.52,0,0,1-.52-.52Z"/><path class="cls-1" d="M28.9,91.14a3,3,0,0,1,.79-2.27,2.54,2.54,0,0,1,3.21,0,3,3,0,0,1,.77,2.27v.2a.52.52,0,0,1-.51.52h-.42a.52.52,0,0,1-.53-.52v-.2c0-1-.31-1.4-.91-1.4s-.93.42-.93,1.4v4.1c0,1,.31,1.41.93,1.41a.92.92,0,0,0,.67-.26,2,2,0,0,0,.24-1.15V95a.52.52,0,0,1,.53-.52h.42a.52.52,0,0,1,.51.52v.2a3,3,0,0,1-.76,2.27,2.55,2.55,0,0,1-3.24,0,3,3,0,0,1-.77-2.27Z"/><path class="cls-1" d="M42.07,92.49V88.83a.52.52,0,0,1,.52-.53H43a.52.52,0,0,1,.52.53v8.74a.52.52,0,0,1-.52.52h-.41a.52.52,0,0,1-.52-.52V93.92H40.46v3.65a.52.52,0,0,1-.52.52h-.41a.52.52,0,0,1-.52-.52V88.83a.52.52,0,0,1,.52-.53h.41a.52.52,0,0,1,.52.53v3.66Z"/><path class="cls-1" d="M56.43,88.81a.52.52,0,0,1,.52-.52h3.81a.52.52,0,0,1,.52.52v.41a.52.52,0,0,1-.52.52H59.57v7.81a.53.53,0,0,1-.53.53h-.39a.52.52,0,0,1-.52-.53V89.74H57a.52.52,0,0,1-.52-.52Z"/><path class="cls-1" d="M69.16,92.49V88.83a.52.52,0,0,1,.52-.53h.41a.52.52,0,0,1,.52.53v8.74a.52.52,0,0,1-.52.52h-.41a.52.52,0,0,1-.52-.52V93.92H67.55v3.65a.52.52,0,0,1-.52.52h-.41a.52.52,0,0,1-.52-.52V88.83a.52.52,0,0,1,.52-.53H67a.52.52,0,0,1,.52.53v3.66Z"/><path class="cls-1" d="M79.82,88.3a.52.52,0,0,1,.52.53v.39a.52.52,0,0,1-.52.52H77.6v2.73h1.83A.52.52,0,0,1,80,93v.4a.52.52,0,0,1-.52.52H77.6v2.74h2.22a.52.52,0,0,1,.52.52v.4a.52.52,0,0,1-.52.52H76.68a.52.52,0,0,1-.52-.52V88.83a.52.52,0,0,1,.52-.53Z"/><path class="cls-1" d="M97,98.09a.59.59,0,0,1-.48-.32l-2-5v4.79a.53.53,0,0,1-.52.52h-.43a.53.53,0,0,1-.52-.52V88.83a.54.54,0,0,1,.52-.53h.35a.58.58,0,0,1,.48.32l2,5V88.83a.52.52,0,0,1,.52-.53h.41a.52.52,0,0,1,.52.53v8.74a.52.52,0,0,1-.52.52Z"/><path class="cls-1" d="M107,88.3a.52.52,0,0,1,.52.53v.39a.52.52,0,0,1-.52.52h-2.22v2.73h1.83a.52.52,0,0,1,.52.52v.4a.52.52,0,0,1-.52.52h-1.83v2.74H107a.52.52,0,0,1,.52.52v.4a.52.52,0,0,1-.52.52h-3.14a.52.52,0,0,1-.52-.52V88.83a.52.52,0,0,1,.52-.53Z"/><path class="cls-1" d="M114.12,97.78a.59.59,0,0,1-.46.31h-.45a.51.51,0,0,1-.48-.74l2-4.15-2-4.16a.51.51,0,0,1,.48-.74h.45a.59.59,0,0,1,.46.31l1.38,2.87c.45-1,.92-1.91,1.37-2.87a.55.55,0,0,1,.46-.31h.45a.5.5,0,0,1,.47.74l-2,4.16,2,4.15a.49.49,0,0,1-.46.74h-.45a.61.61,0,0,1-.48-.31l-1.36-2.88Z"/><path class="cls-1" d="M123.56,88.81a.52.52,0,0,1,.52-.52h3.8a.52.52,0,0,1,.53.52v.41a.52.52,0,0,1-.53.52h-1.19v7.81a.52.52,0,0,1-.52.53h-.39a.52.52,0,0,1-.52-.53V89.74h-1.18a.52.52,0,0,1-.52-.52Z"/><path class="cls-1" d="M141.14,88.81a.52.52,0,0,1,.52-.52h3.81a.52.52,0,0,1,.52.52v.41a.52.52,0,0,1-.52.52h-1.19v7.81a.53.53,0,0,1-.53.53h-.39a.52.52,0,0,1-.52-.53V89.74h-1.18a.52.52,0,0,1-.52-.52Z"/><path class="cls-1" d="M156.05,97.55a.52.52,0,0,1-.52.53h-.41a.52.52,0,0,1-.52-.53V95.13A1,1,0,0,0,153.48,94h-.65v3.55a.53.53,0,0,1-.51.53h-.41a.52.52,0,0,1-.52-.53V88.81a.52.52,0,0,1,.52-.52h1.83c1.79,0,2.41.9,2.41,2.85a2.87,2.87,0,0,1-.61,2.07l-.12.12a2.47,2.47,0,0,1,.63,1.8Zm-3.22-5h.65c.81,0,1.23-.41,1.23-1.39s-.21-1.4-1-1.4h-.91Z"/><path class="cls-1" d="M164.4,95.42h-1.48l-.51,2.26a.58.58,0,0,1-.51.41h-.42a.5.5,0,0,1-.51-.62l.7-3.08L163,88.71a.58.58,0,0,1,.51-.41h.32a.55.55,0,0,1,.5.41l2,8.74a.52.52,0,0,1-.51.64h-.42a.58.58,0,0,1-.51-.41ZM163.25,94h.81c-.16-.7-.13-1.09-.4-2.32Z"/><path class="cls-1" d="M172.26,98.09a.52.52,0,0,1-.52-.52V88.83a.52.52,0,0,1,.52-.53h1.49c1.74,0,2.55,1,2.55,2.88v4c0,1.89-.81,2.88-2.55,2.88Zm.92-8.35v6.91h.57c.76,0,1.08-.46,1.08-1.44v-4c0-1-.32-1.44-1.08-1.44Z"/><path class="cls-1" d="M183.24,97.57a.53.53,0,0,1-.52.52h-.41a.52.52,0,0,1-.52-.52V88.83a.52.52,0,0,1,.52-.53h.41a.54.54,0,0,1,.52.53Z"/><path class="cls-1" d="M192.53,98.09a.61.61,0,0,1-.48-.32l-2-5v4.79a.52.52,0,0,1-.52.52h-.42a.52.52,0,0,1-.52-.52V88.83a.53.53,0,0,1,.52-.53h.35a.58.58,0,0,1,.48.32l2,5V88.83a.52.52,0,0,1,.52-.53h.41a.52.52,0,0,1,.52.53v8.74a.52.52,0,0,1-.52.52Z"/><path class="cls-1" d="M203.16,93.18a.52.52,0,0,1,.51.52v1.56c0,1.84-.79,2.83-2.38,2.83s-2.4-1-2.4-2.83V91.12c0-1.84.8-2.82,2.4-2.82s2.38,1,2.38,2.82v.2a.53.53,0,0,1-.51.53h-.42a.53.53,0,0,1-.53-.53v-.2a1.58,1.58,0,0,0-.32-1.19.85.85,0,0,0-.6-.19.83.83,0,0,0-.61.19c-.21.17-.34.52-.34,1.19v4.14c0,.94.31,1.39.95,1.39s.92-.45.92-1.39v-.63h-.5c-.82,0-.86-1.45,0-1.45Z"/><path class="cls-1" d="M221.38,93.11l.65-4.37a.53.53,0,0,1,.52-.44H223a.53.53,0,0,1,.53.6l-1.4,8.75a.54.54,0,0,1-.52.44h-.33a.53.53,0,0,1-.51-.42L220,93l-.78,4.63a.55.55,0,0,1-.51.42h-.32a.53.53,0,0,1-.51-.44l-1.42-8.75a.5.5,0,0,1,.5-.6h.43a.55.55,0,0,1,.52.44l.67,4.4.75-4.42a.54.54,0,0,1,.51-.42h.32a.55.55,0,0,1,.51.42Z"/><path class="cls-1" d="M230.83,95.42h-1.48l-.51,2.26a.58.58,0,0,1-.51.41h-.42a.5.5,0,0,1-.51-.62l.7-3.08,1.32-5.68a.58.58,0,0,1,.51-.41h.32a.58.58,0,0,1,.51.41l2,8.74a.52.52,0,0,1-.51.64h-.42a.58.58,0,0,1-.51-.41ZM229.68,94h.81c-.16-.7-.13-1.09-.4-2.32Z"/><path class="cls-1" d="M239.36,94.23l1.3-5.53a.56.56,0,0,1,.51-.41h.42a.51.51,0,0,1,.5.64L240,97.67a.56.56,0,0,1-.51.41h-.3a.53.53,0,0,1-.51-.41l-2.06-8.74a.5.5,0,0,1,.51-.64h.4a.58.58,0,0,1,.51.41Z"/><path class="cls-1" d="M250.92,88.3a.52.52,0,0,1,.52.53v.39a.52.52,0,0,1-.52.52H248.7v2.73h1.83a.52.52,0,0,1,.52.52v.4a.52.52,0,0,1-.52.52H248.7v2.74h2.22a.52.52,0,0,1,.52.52v.4a.52.52,0,0,1-.52.52h-3.14a.52.52,0,0,1-.52-.52V88.83a.52.52,0,0,1,.52-.53Z"/><path class="cls-1" d="M83,.52A.52.52,0,0,1,83.52,0h3.8a.52.52,0,0,1,.52.52V.93a.52.52,0,0,1-.52.52H86.13V9.26a.52.52,0,0,1-.52.53h-.39a.53.53,0,0,1-.53-.53V1.45H83.52A.52.52,0,0,1,83,.93Z"/><path class="cls-1" d="M97.9,9.26a.52.52,0,0,1-.52.53H97a.52.52,0,0,1-.52-.53V6.84a1,1,0,0,0-1.12-1.13h-.65V9.26a.52.52,0,0,1-.51.53h-.4a.53.53,0,0,1-.53-.53V.52A.52.52,0,0,1,93.77,0H95.6C97.38,0,98,.9,98,2.85a2.85,2.85,0,0,1-.61,2.07,1.36,1.36,0,0,0-.12.12,2.51,2.51,0,0,1,.62,1.8Zm-3.22-5h.65c.82,0,1.24-.41,1.24-1.39s-.22-1.4-1-1.4h-.92Z"/><path class="cls-1" d="M106.25,7.13h-1.48l-.51,2.26a.58.58,0,0,1-.51.41h-.42a.5.5,0,0,1-.5-.62l.69-3.08L104.84.42a.58.58,0,0,1,.51-.41h.32a.56.56,0,0,1,.51.41l2,8.74a.51.51,0,0,1-.51.64h-.42a.56.56,0,0,1-.5-.41Zm-1.14-1.44h.81c-.16-.7-.13-1.09-.41-2.32Z"/><path class="cls-1" d="M114.12,9.8a.52.52,0,0,1-.52-.52V.54a.52.52,0,0,1,.52-.53h1.48c1.74,0,2.56,1,2.56,2.88v4c0,1.88-.82,2.87-2.56,2.87ZM115,1.45V8.36h.57c.77,0,1.09-.46,1.09-1.43v-4c0-1-.32-1.44-1.09-1.44Z"/><path class="cls-1" d="M127.35,0a.52.52,0,0,1,.52.53V.93a.52.52,0,0,1-.52.52h-2.23V4.18H127a.52.52,0,0,1,.53.52v.4a.52.52,0,0,1-.53.52h-1.83V8.36h2.23a.52.52,0,0,1,.52.53v.39a.52.52,0,0,1-.52.52h-3.14a.52.52,0,0,1-.52-.52V.54a.52.52,0,0,1,.52-.53Z"/><path class="cls-1" d="M135.94,5.94,137.23.41a.57.57,0,0,1,.51-.41h.42a.51.51,0,0,1,.51.64l-2.06,8.74a.56.56,0,0,1-.51.41h-.31a.52.52,0,0,1-.5-.41L133.22.64a.51.51,0,0,1,.51-.64h.41a.58.58,0,0,1,.51.41Z"/><path class="cls-1" d="M145.25,9.28a.53.53,0,0,1-.53.52h-.4a.52.52,0,0,1-.53-.52V.54a.53.53,0,0,1,.53-.53h.4a.54.54,0,0,1,.53.53Z"/><path class="cls-1" d="M154.23,0a.52.52,0,0,1,.52.53V.93a.52.52,0,0,1-.52.52H152V4.18h1.83a.52.52,0,0,1,.52.52v.4a.52.52,0,0,1-.52.52H152V8.36h2.22a.52.52,0,0,1,.52.53v.39a.52.52,0,0,1-.52.52H151.1a.52.52,0,0,1-.53-.52V.54A.53.53,0,0,1,151.1,0Z"/><path class="cls-1" d="M165,4.82l.65-4.37a.54.54,0,0,1,.53-.44h.42a.53.53,0,0,1,.52.6l-1.39,8.75a.56.56,0,0,1-.53.44h-.33a.54.54,0,0,1-.51-.42l-.77-4.63-.78,4.63a.55.55,0,0,1-.51.42h-.32a.54.54,0,0,1-.51-.44L160,.61a.51.51,0,0,1,.51-.6h.42a.53.53,0,0,1,.52.44l.67,4.4.75-4.41a.55.55,0,0,1,.51-.43h.32a.54.54,0,0,1,.51.43Z"/></g></g></svg>